<?xml version="1.0" encoding="utf-8"?>
<!-- Generator: Adobe Illustrator 16.0.4, SVG Export Plug-In . SVG Version: 6.00 Build 0)  -->
<!DOCTYPE svg PUBLIC "-//W3C//DTD SVG 1.1//EN" "http://www.w3.org/Graphics/SVG/1.1/DTD/svg11.dtd">
<svg version="1.1" id="Layer_1" xmlns="http://www.w3.org/2000/svg" xmlns:xlink="http://www.w3.org/1999/xlink" x="0px" y="0px"
	 width="56.693px" height="56.693px" viewBox="0 0 56.693 56.693" enable-background="new 0 0 56.693 56.693" xml:space="preserve">
<path d="M28.347,5.155c-13.6,0-24.625,11.025-24.625,24.625c0,13.602,11.024,24.625,24.625,24.625
	c13.602,0,24.625-11.023,24.625-24.625C52.972,16.18,41.948,5.155,28.347,5.155z M20.71,40.89c-1.788,0-3.237-1.451-3.237-3.238
	c0-1.789,1.449-3.238,3.237-3.238c1.787,0,3.238,1.449,3.238,3.238C23.948,39.438,22.497,40.89,20.71,40.89z M28.833,40.911
	c0-3.057-1.182-5.928-3.33-8.082c-2.143-2.154-4.992-3.342-8.028-3.342v-4.674c8.84,0,16.03,7.223,16.03,16.098H28.833z
	 M37.089,40.915c0-10.867-8.795-19.711-19.606-19.711v-4.676c13.387,0,24.28,10.942,24.28,24.387H37.089z"/>
</svg>
